<?xml version="1.0" encoding="UTF-8" standalone="no"?>
<svg width="46px" height="58px" viewBox="0 0 46 58" version="1.1" xmlns="http://www.w3.org/2000/svg" xmlns:xlink="http://www.w3.org/1999/xlink" xmlns:sketch="http://www.bohemiancoding.com/sketch/ns">
    <!-- Generator: Sketch 3.3.3 (12072) - http://www.bohemiancoding.com/sketch -->
    <title>icon-open</title>
    <desc>Created with Sketch.</desc>
    <defs></defs>
    <g id="Page-1" stroke="none" stroke-width="1" fill="none" fill-rule="evenodd" sketch:type="MSPage">
        <g id="Event/JomLaunch-Copy" sketch:type="MSArtboardGroup" transform="translate(-182.000000, -1012.000000)">
            <g id="icon-open" sketch:type="MSLayerGroup" transform="translate(183.000000, 1013.000000)">
                <g id="Page-1" sketch:type="MSShapeGroup">
                    <g id="129---Multiply-and-Evolve-(Outline)">
                        <path d="M12,6 C12,9.314 9.314,12 6,12 C2.686,12 0,9.314 0,6 C0,2.686 2.686,0 6,0 C9.314,0 12,2.686 12,6 L12,6 L12,6 Z" id="Stroke-34" stroke="#000000" stroke-width="2"></path>
                        <path d="M44,6 C44,9.314 41.314,12 38,12 C34.686,12 32,9.314 32,6 C32,2.686 34.686,0 38,0 C41.314,0 44,2.686 44,6 L44,6 L44,6 Z" id="Stroke-36" stroke="#000000" stroke-width="2"></path>
                        <path d="M12,50 C12,53.314 9.314,56 6,56 C2.686,56 0,53.314 0,50 C0,46.686 2.686,44 6,44 C9.314,44 12,46.686 12,50 L12,50 L12,50 Z" id="Stroke-38" stroke="#000000" stroke-width="2"></path>
                        <path d="M6,12 L6,44" id="Stroke-40" stroke="#000000" stroke-width="2"></path>
                        <path d="M38,12 C38,20.844 30.844,28 22,28 C13.156,28 6,35.156 6,44" id="Stroke-42" stroke="#000000" stroke-width="2"></path>
                        <path d="M36,2 C36,2.552 35.552,3 35,3 C34.448,3 34,2.552 34,2 C34,1.448 34.448,1 35,1 C35.552,1 36,1.448 36,2" id="Fill-43" fill="#000000"></path>
                        <path d="M40,2 C40,2.552 39.552,3 39,3 C38.448,3 38,2.552 38,2 C38,1.448 38.448,1 39,1 C39.552,1 40,1.448 40,2" id="Fill-44" fill="#000000"></path>
                        <path d="M38,4 C38,4.552 37.552,5 37,5 C36.448,5 36,4.552 36,4 C36,3.448 36.448,3 37,3 C37.552,3 38,3.448 38,4" id="Fill-45" fill="#000000"></path>
                        <path d="M36,6 C36,6.552 35.552,7 35,7 C34.448,7 34,6.552 34,6 C34,5.448 34.448,5 35,5 C35.552,5 36,5.448 36,6" id="Fill-46" fill="#000000"></path>
                        <path d="M40,6 C40,6.552 39.552,7 39,7 C38.448,7 38,6.552 38,6 C38,5.448 38.448,5 39,5 C39.552,5 40,5.448 40,6" id="Fill-47" fill="#000000"></path>
                        <path d="M44,6 C44,6.552 43.552,7 43,7 C42.448,7 42,6.552 42,6 C42,5.448 42.448,5 43,5 C43.552,5 44,5.448 44,6" id="Fill-48" fill="#000000"></path>
                        <path d="M42,8 C42,8.552 41.552,9 41,9 C40.448,9 40,8.552 40,8 C40,7.448 40.448,7 41,7 C41.552,7 42,7.448 42,8" id="Fill-49" fill="#000000"></path>
                        <path d="M38,8 C38,8.552 37.552,9 37,9 C36.448,9 36,8.552 36,8 C36,7.448 36.448,7 37,7 C37.552,7 38,7.448 38,8" id="Fill-50" fill="#000000"></path>
                        <path d="M36,10 C36,10.552 35.552,11 35,11 C34.448,11 34,10.552 34,10 C34,9.448 34.448,9 35,9 C35.552,9 36,9.448 36,10" id="Fill-51" fill="#000000"></path>
                        <path d="M40,10 C40,10.552 39.552,11 39,11 C38.448,11 38,10.552 38,10 C38,9.448 38.448,9 39,9 C39.552,9 40,9.448 40,10" id="Fill-52" fill="#000000"></path>
                        <path d="M34,8 C34,8.552 33.552,9 33,9 C32.448,9 32,8.552 32,8 C32,7.448 32.448,7 33,7 C33.552,7 34,7.448 34,8" id="Fill-53" fill="#000000"></path>
                        <path d="M42,4 C42,4.552 41.552,5 41,5 C40.448,5 40,4.552 40,4 C40,3.448 40.448,3 41,3 C41.552,3 42,3.448 42,4" id="Fill-54" fill="#000000"></path>
                        <path d="M34,4 C34,4.552 33.552,5 33,5 C32.448,5 32,4.552 32,4 C32,3.448 32.448,3 33,3 C33.552,3 34,3.448 34,4" id="Fill-55" fill="#000000"></path>
                        <path d="M6,12 L0,18" id="Stroke-75" stroke="#000000" stroke-width="2"></path>
                        <path d="M6,12 L12,18" id="Stroke-77" stroke="#000000" stroke-width="2"></path>
                        <path d="M38,12 L32,18" id="Stroke-79" stroke="#000000" stroke-width="2"></path>
                        <path d="M38,12 L44,18" id="Stroke-81" stroke="#000000" stroke-width="2"></path>
                    </g>
                </g>
            </g>
        </g>
    </g>
</svg>