<?xml version="1.0" encoding="UTF-8" standalone="no"?>
<svg width="50px" height="60px" viewBox="0 0 50 60" version="1.1" xmlns="http://www.w3.org/2000/svg" xmlns:xlink="http://www.w3.org/1999/xlink" xmlns:sketch="http://www.bohemiancoding.com/sketch/ns">
    <!-- Generator: Sketch 3.3.3 (12072) - http://www.bohemiancoding.com/sketch -->
    <title>icon-commercial</title>
    <desc>Created with Sketch.</desc>
    <defs></defs>
    <g id="Page-1" stroke="none" stroke-width="1" fill="none" fill-rule="evenodd" sketch:type="MSPage">
        <g id="Event/JomLaunch-Copy" sketch:type="MSArtboardGroup" transform="translate(-1191.000000, -1007.000000)">
            <g id="icon-commercial" sketch:type="MSLayerGroup" transform="translate(1192.000000, 1008.000000)">
                <g id="Page-1" sketch:type="MSShapeGroup">
                    <g id="Icons">
                        <g id="129---Money-Power-(Outline)">
                            <path d="M19.4096739,47 L43.4096739,47 L43.4096739,58 L19.4096739,58 L19.4096739,47 L19.4096739,47 Z" id="Stroke-89" stroke="#000000" stroke-width="2"></path>
                            <path d="M35.4096739,58 L19.4096739,58 L19.4096739,47 L28.8346739,47 C32.4656739,47 35.4096739,49.944 35.4096739,53.575 L35.4096739,58 L35.4096739,58 Z" id="Stroke-91" stroke="#000000" stroke-width="2"></path>
                            <path d="M31.4096739,52.5 C31.4096739,53.881 30.2896739,55 28.9096739,55 C27.5286739,55 26.4096739,53.881 26.4096739,52.5 C26.4096739,51.119 27.5286739,50 28.9096739,50 C30.2896739,50 31.4096739,51.119 31.4096739,52.5 L31.4096739,52.5 L31.4096739,52.5 Z" id="Stroke-93" stroke="#000000" stroke-width="2"></path>
                            <path d="M27.3136739,10.702 C28.5466739,10.161 29.4096739,8.933 29.4096739,7.5 C29.4096739,5.567 27.8426739,4 25.9096739,4 C24.4766739,4 23.2486739,4.863 22.7076739,6.096 L27.3136739,10.702 L27.3136739,10.702 Z" id="Stroke-95" stroke="#000000" stroke-width="2"></path>
                            <path d="M32.3136739,15.702 C33.5466739,15.161 34.4096739,13.933 34.4096739,12.5 C34.4096739,10.567 32.8426739,9 30.9096739,9 C29.4766739,9 28.2486739,9.863 27.7076739,11.096 L32.3136739,15.702 L32.3136739,15.702 Z" id="Stroke-97" stroke="#000000" stroke-width="2"></path>
                            <path d="M37.3136739,20.702 C38.5466739,20.161 39.4096739,18.933 39.4096739,17.5 C39.4096739,15.567 37.8426739,14 35.9096739,14 C34.4766739,14 33.2486739,14.863 32.7076739,16.096 L37.3136739,20.702 L37.3136739,20.702 Z" id="Stroke-99" stroke="#000000" stroke-width="2"></path>
                            <path d="M42.3136739,25.702 C43.5466739,25.161 44.4096739,23.933 44.4096739,22.5 C44.4096739,20.567 42.8426739,19 40.9096739,19 C39.4766739,19 38.2486739,19.863 37.7076739,21.096 L42.3136739,25.702 L42.3136739,25.702 Z" id="Stroke-101" stroke="#000000" stroke-width="2"></path>
                            <path d="M21.9096739,33 L11.9096739,33 C9.98467392,33 8.40967392,31.425 8.40967392,29.5 C8.40967392,27.575 9.98467392,26 11.9096739,26 L21.9096739,26 C23.8346739,26 25.4096739,27.575 25.4096739,29.5 C25.4096739,31.425 23.8346739,33 21.9096739,33 L21.9096739,33 L21.9096739,33 Z" id="Stroke-103" stroke="#000000" stroke-width="2"></path>
                            <path d="M22.9996739,12.075 L20.1716739,9.247 C18.6096739,10.809 16.0766739,10.809 14.5146739,9.247 L8.85767392,14.903 C10.4196739,16.466 10.4196739,18.998 8.85767392,20.56 L11.6866739,23.389" id="Stroke-105" stroke="#000000" stroke-width="2"></path>
                            <path d="M35.7276739,24.803 L38.5566739,27.631 C36.9946739,29.193 36.9946739,31.726 38.5566739,33.288 L32.8996739,38.945 C31.3376739,37.383 28.8046739,37.383 27.2426739,38.945 L24.4146739,36.117" id="Stroke-107" stroke="#000000" stroke-width="2"></path>
                            <path d="M42.0916739,31.167 C41.7016739,31.557 41.0686739,31.557 40.6776739,31.167 C40.2876739,30.776 40.2876739,30.143 40.6776739,29.753 C41.0686739,29.362 41.7016739,29.362 42.0916739,29.753 C42.4826739,30.143 42.4826739,30.776 42.0916739,31.167" id="Fill-108" fill="#000000"></path>
                            <path d="M30.7786739,42.481 C30.3876739,42.871 29.7546739,42.871 29.3636739,42.481 C28.9736739,42.09 28.9736739,41.457 29.3636739,41.066 C29.7546739,40.676 30.3876739,40.676 30.7786739,41.066 C31.1686739,41.457 31.1686739,42.09 30.7786739,42.481" id="Fill-109" fill="#000000"></path>
                            <path d="M18.0506739,7.125 C17.6596739,7.516 17.0266739,7.516 16.6356739,7.125 C16.2456739,6.735 16.2456739,6.102 16.6356739,5.711 C17.0266739,5.32 17.6596739,5.32 18.0506739,5.711 C18.4406739,6.102 18.4406739,6.735 18.0506739,7.125" id="Fill-110" fill="#000000"></path>
                            <path d="M6.73667392,18.439 C6.34567392,18.829 5.71267392,18.829 5.32267392,18.439 C4.93167392,18.048 4.93167392,17.415 5.32267392,17.025 C5.71267392,16.634 6.34567392,16.634 6.73667392,17.025 C7.12667392,17.415 7.12667392,18.048 6.73667392,18.439" id="Fill-111" fill="#000000"></path>
                            <path d="M29.6406739,47 L15.6406739,33 L11.9096739,33 C11.3316739,33.282 9.75467392,32.262 10.3596739,32.781 L21.1716739,43.552 C21.2456739,43.625 21.3316739,43.679 21.4096739,43.745 L21.4096739,47 L29.6406739,47 L29.6406739,47 Z" id="Stroke-113" stroke="#000000" stroke-width="2"></path>
                            <path d="M30.5016739,47 L41.4096739,47 L41.4096739,42.49 C43.2276739,41.121 44.4096739,38.951 44.4096739,36.5 C44.4096739,35.492 44.2036739,34.535 43.8426739,33.659 L30.5016739,47 L30.5016739,47 Z" id="Stroke-115" stroke="#000000" stroke-width="2"></path>
                            <path d="M30.0706739,17.732 C26.5566739,14.217 20.8576739,14.217 17.3436739,17.732 C15.0986739,19.977 14.2936739,23.111 14.9176739,26 L21.9096739,26 C23.8346739,26 25.4096739,27.575 25.4096739,29.5 C25.4096739,31.313 24.0076739,32.798 22.2366739,32.967 C25.0016739,33.423 27.9386739,32.593 30.0706739,30.46 C33.5856739,26.945 33.5856739,21.247 30.0706739,17.732 L30.0706739,17.732 L30.0706739,17.732 Z" id="Stroke-117" stroke="#000000" stroke-width="2"></path>
                            <path d="M17.3436739,0.761 L0.372673918,17.732 L9.56467392,26.923 C10.1866739,26.356 11.0056739,26 11.9096739,26 L21.9096739,26 C23.8346739,26 25.4096739,27.575 25.4096739,29.5 C25.4096739,31.425 23.8346739,33 21.9096739,33 L15.6406739,33 L30.0706739,47.43 L47.0416739,30.46 L17.3436739,0.761 L17.3436739,0.761 Z" id="Stroke-119" stroke="#000000" stroke-width="2"></path>
                        </g>
                    </g>
                </g>
            </g>
        </g>
    </g>
</svg>