<?xml version="1.0" encoding="UTF-8" standalone="no"?>
<svg width="60px" height="55px" viewBox="0 0 60 55" version="1.1" xmlns="http://www.w3.org/2000/svg" xmlns:xlink="http://www.w3.org/1999/xlink" xmlns:sketch="http://www.bohemiancoding.com/sketch/ns">
    <!-- Generator: Sketch 3.3.3 (12072) - http://www.bohemiancoding.com/sketch -->
    <title>icon-community</title>
    <desc>Created with Sketch.</desc>
    <defs></defs>
    <g id="Page-1" stroke="none" stroke-width="1" fill="none" fill-rule="evenodd" sketch:type="MSPage">
        <g id="Event/JomLaunch-Copy" sketch:type="MSArtboardGroup" transform="translate(-507.000000, -1012.000000)">
            <g id="icon-community" sketch:type="MSLayerGroup" transform="translate(508.000000, 1013.000000)">
                <g id="Page-1" sketch:type="MSShapeGroup">
                    <g id="300---Users-(Outline)">
                        <path d="M18.18,42.72 L24.126,39.477 C24.092,39.444 24.12,39.434 24.191,39.441 L27.101,37.854 C28.272,37.215 29,35.988 29,34.655 L29,31 C29,31 27.938,29.725 26.908,27.677 C26.907,27.677 26.907,27.675 26.906,27.675 C26.772,27.407 26.639,27.124 26.508,26.831 C26.49,26.79 26.472,26.751 26.454,26.71 C26.321,26.407 26.191,26.094 26.067,25.767 C26.059,25.745 26.052,25.723 26.044,25.701 C25.936,25.412 25.835,25.112 25.738,24.806 C25.712,24.722 25.686,24.639 25.661,24.554 C25.56,24.216 25.464,23.872 25.383,23.517 C24.554,22.981 24,22.054 24,21 L24,17 C24,16.12 24.391,15.333 25,14.783 L25,9.136 C23.586,8.039 21.397,7 18,7 C8.437,7 8,15 8,15 L8,19.995 C7.474,20.47 7,21.149 7,21.909 L7,25.364 C7,26.274 7.479,27.075 8.194,27.537 C9.057,31.296 11.954,34 11.954,34 L11.954,37.157 C11.954,38.308 11.326,39.368 10.315,39.919 L3.61,44.122 C1.385,45.336 0,47.668 0,50.203 L0,53 L14,53 L14,49.761 C14,46.826 15.603,44.125 18.18,42.72 L18.18,42.72 L18.18,42.72 Z" id="Path" stroke="#000000" stroke-width="2"></path>
                        <path d="M53.566,42.783 L44.014,38.007 C42.78,37.39 42,36.128 42,34.748 L42,31 C42.268,30.695 42.576,30.302 42.904,29.838 C44.205,28 45.19,25.977 45.873,23.854 C47.097,23.477 48,22.345 48,21 L48,17 C48,16.12 47.609,15.333 47,14.783 L47,9 C47,9 48.187,0 36,0 C23.812,0 25,9 25,9 L25,14.783 C24.391,15.333 24,16.12 24,17 L24,21 C24,22.054 24.554,22.981 25.383,23.517 C26.382,27.869 29,31 29,31 L29,34.655 C29,35.988 28.272,37.215 27.101,37.854 L18.18,42.72 C15.603,44.125 14,46.826 14,49.761 L14,53 L58,53 L58,49.957 C58,46.919 56.283,44.142 53.566,42.783 L53.566,42.783 L53.566,42.783 Z" id="Path" stroke="#000000" stroke-width="2"></path>
                        <g id="Path-Copy-+-Fill-5-Copy-+-Fill-6-Copy" transform="translate(30.000000, 16.000000)">
                            <path d="M2.1312,7.9218 C5.1924,9.1974 8.9244,7.845 10.2,4.7838" id="Path-Copy" stroke="#070707" stroke-width="2" stroke-linecap="round"></path>
                            <path d="M2.4,1.2 C2.4,1.863 1.863,2.4 1.2,2.4 C0.537,2.4 0,1.863 0,1.2 C0,0.5376 0.537,0 1.2,0 C1.863,0 2.4,0.5376 2.4,1.2" id="Fill-5-Copy" fill="#070808"></path>
                            <path d="M10.2,1.2 C10.2,1.863 9.663,2.4 9,2.4 C8.337,2.4 7.8,1.863 7.8,1.2 C7.8,0.5376 8.337,0 9,0 C9.663,0 10.2,0.5376 10.2,1.2" id="Fill-6-Copy" fill="#070808"></path>
                        </g>
                    </g>
                </g>
            </g>
        </g>
    </g>
</svg>